<svg width="88" height="88" viewBox="0 0 88 88" fill="none" xmlns="http://www.w3.org/2000/svg">
<circle cx="44" cy="44" r="44" fill="#001D46"/>
<circle opacity="0.3" cx="44" cy="14" r="5" fill="#759DFF"/>
<circle opacity="0.3" cx="74" cy="44" r="5" fill="#759DFF"/>
<circle opacity="0.3" cx="44" cy="74" r="5" fill="#759DFF"/>
<circle opacity="0.3" cx="14" cy="44" r="5" fill="#759DFF"/>
<circle cx="23" cy="23" r="6" fill="#759DFF"/>
<circle cx="66" cy="23" r="6" fill="#759DFF"/>
<circle cx="65" cy="65" r="6" fill="#759DFF"/>
<circle cx="24" cy="64" r="6" fill="#759DFF"/>
<path fill-rule="evenodd" clip-rule="evenodd" d="M44.0117 60C52.8483 60 60.0117 52.8366 60.0117 44C60.0117 35.1634 52.8483 28 44.0117 28C35.1752 28 28.0117 35.1634 28.0117 44C28.0117 52.8366 35.1752 60 44.0117 60ZM43.7155 51.0113L53.027 40.6964C53.6928 40.0743 53.6928 39.0824 53.027 38.4603C52.3702 37.8466 51.2997 37.8466 50.6429 38.4603L42.5189 47.6655L37.8857 43.3277C37.2199 42.714 36.1583 42.714 35.4926 43.3277C34.8358 43.9498 34.8358 44.9418 35.4926 45.5638L41.3224 51.0113C41.6463 51.3056 42.0691 51.4737 42.5189 51.4737C42.9688 51.4737 43.4006 51.3056 43.7155 51.0113Z" fill="#E7F2FF"/>
</svg>
