<svg width="88" height="88" viewBox="0 0 88 88" fill="none" xmlns="http://www.w3.org/2000/svg">
<circle cx="44" cy="44" r="44" fill="#001D46"/>
<circle cx="41.1507" cy="28.8059" r="9.13912" fill="#759DFF"/>
<path fill-rule="evenodd" clip-rule="evenodd" d="M34.7326 41.6009C28.5204 41.6009 23.4844 46.6369 23.4844 52.8491V59.8791H41.9662C41.8332 59.0865 41.764 58.2724 41.764 57.442C41.764 50.4337 46.6944 44.5769 53.2758 43.151C51.6039 42.1659 49.655 41.6009 47.5741 41.6009H34.7326Z" fill="#759DFF"/>
<path fill-rule="evenodd" clip-rule="evenodd" d="M59.4246 69.627C65.818 69.627 71.0009 64.4441 71.0009 58.0508C71.0009 51.6574 65.818 46.4745 59.4246 46.4745C53.0313 46.4745 47.8484 51.6574 47.8484 58.0508C47.8484 64.4441 53.0313 69.627 59.4246 69.627ZM59.0251 63.1998L65.7621 55.7368C66.2438 55.2867 66.2438 54.569 65.7621 54.1189C65.2869 53.6749 64.5123 53.6749 64.0372 54.1189L58.1594 60.779L54.8071 57.6406C54.3255 57.1965 53.5574 57.1965 53.0757 57.6406C52.6005 58.0906 52.6005 58.8084 53.0757 59.2584L57.2936 63.1998C57.528 63.4126 57.8339 63.5343 58.1594 63.5343C58.4848 63.5343 58.7973 63.4126 59.0251 63.1998Z" fill="#E7F2FF"/>
</svg>
